REM DIRINDEX 1\2\4\18,1\2\4\19,1\2\5\20,1\2\5\21,1\2\6\22,1\2\7\23,1\2\8\24,1\2\8\25,1\2\9\26,1\2\10\27,1\3\11\28,1\3\11\29,1\3\11\30,1\3\11\31,1\3\12\32,1\3\12\33,1\3\12\34,1\3\12\35,1\3\13\36,1\3\13\37,1\3\14\38,1\3\14\39,1\3\15\40,1\3\15\41,1\3\15\42,1\3\16\43,1\3\16\44,1\3\17\45,1\3\17\46
REM DIRNAME folder01,folder02,folder03,folder04,folder05,folder06,folder07,folder08,folder09,folder10,folder11,folder12,folder13,folder14,folder15,folder16,folder17,folder18,folder19,folder20,folder21,folder22,folder23,folder24,folder25,folder26,folder27,folder28,folder29,folder30,folder31,folder32,folder33,folder34,folder35,folder36,folder37,folder38,folder39,folder40,folder41,folder42,folder43,folder44,folder45,folder46
TITLE ""
FILE "07.mp3" MP3
  TRACK 01 AUDIO
    TITLE "0:"
    INDEX 01 00:00:00
  TRACK 02 AUDIO
    TITLE "28:cjc024_4860"
    INDEX 01 00:00:13
  TRACK 03 AUDIO
    TITLE "0:"
    INDEX 01 00:01:19
  TRACK 04 AUDIO
    TITLE "29:cjc024_4861"
    INDEX 01 00:01:58
  TRACK 05 AUDIO
    TITLE "0:"
    INDEX 01 00:04:23
  TRACK 06 AUDIO
    TITLE "30:cjc024_4862"
    INDEX 01 00:04:58
  TRACK 07 AUDIO
    TITLE "0:"
    INDEX 01 00:07:03
  TRACK 08 AUDIO
    TITLE "31:cjc024_4863"
    INDEX 01 00:07:31
  TRACK 09 AUDIO
    TITLE "0:"
    INDEX 01 00:09:51
  TRACK 10 AUDIO
    TITLE "28:cjc024_4864"
    INDEX 01 00:10:55
  TRACK 11 AUDIO
    TITLE "0:"
    INDEX 01 00:11:66
  TRACK 12 AUDIO
    TITLE "29:cjc024_4865"
    INDEX 01 00:12:30
  TRACK 13 AUDIO
    TITLE "0:"
    INDEX 01 00:15:54
  TRACK 14 AUDIO
    TITLE "30:cjc024_4866"
    INDEX 01 00:16:16
  TRACK 15 AUDIO
    TITLE "0:"
    INDEX 01 00:18:46
  TRACK 16 AUDIO
    TITLE "31:cjc024_4867"
    INDEX 01 00:18:70
  TRACK 17 AUDIO
    TITLE "0:"
    INDEX 01 00:21:25
  TRACK 18 AUDIO
    TITLE "28:cjc024_4868"
    INDEX 01 00:22:27
  TRACK 19 AUDIO
    TITLE "0:"
    INDEX 01 00:23:53
  TRACK 20 AUDIO
    TITLE "29:cjc024_4869"
    INDEX 01 00:24:18
  TRACK 21 AUDIO
    TITLE "0:"
    INDEX 01 00:25:52
  TRACK 22 AUDIO
    TITLE "30:cjc024_4870"
    INDEX 01 00:26:17
  TRACK 23 AUDIO
    TITLE "0:"
    INDEX 01 00:28:23
  TRACK 24 AUDIO
    TITLE "31:cjc024_4871"
    INDEX 01 00:28:51
  TRACK 25 AUDIO
    TITLE "0:"
    INDEX 01 00:30:59
  TRACK 26 AUDIO
    TITLE "28:cjc024_4872"
    INDEX 01 00:31:61
  TRACK 27 AUDIO
    TITLE "0:"
    INDEX 01 00:32:72
  TRACK 28 AUDIO
    TITLE "29:cjc024_4873"
    INDEX 01 00:33:36
  TRACK 29 AUDIO
    TITLE "0:"
    INDEX 01 00:36:60
  TRACK 30 AUDIO
    TITLE "30:cjc024_4874"
    INDEX 01 00:37:22
  TRACK 31 AUDIO
    TITLE "0:"
    INDEX 01 00:39:60
  TRACK 32 AUDIO
    TITLE "31:cjc024_4875"
    INDEX 01 00:40:15
  TRACK 33 AUDIO
    TITLE "0:"
    INDEX 01 00:42:53
  TRACK 34 AUDIO
    TITLE "28:cjc024_4876"
    INDEX 01 00:43:58
  TRACK 35 AUDIO
    TITLE "0:"
    INDEX 01 00:45:00
  TRACK 36 AUDIO
    TITLE "29:cjc024_4877"
    INDEX 01 00:45:41
  TRACK 37 AUDIO
    TITLE "0:"
    INDEX 01 00:48:44
  TRACK 38 AUDIO
    TITLE "30:cjc024_4878"
    INDEX 01 00:49:06
  TRACK 39 AUDIO
    TITLE "0:"
    INDEX 01 00:51:56
  TRACK 40 AUDIO
    TITLE "31:cjc024_4879"
    INDEX 01 00:52:14
  TRACK 41 AUDIO
    TITLE "0:"
    INDEX 01 00:54:64
  TRACK 42 AUDIO
    TITLE "28:cjc024_4880"
    INDEX 01 00:55:71
  TRACK 43 AUDIO
    TITLE "0:"
    INDEX 01 00:57:13
  TRACK 44 AUDIO
    TITLE "29:cjc024_4881"
    INDEX 01 00:57:54
  TRACK 45 AUDIO
    TITLE "0:"
    INDEX 01 01:00:29
  TRACK 46 AUDIO
    TITLE "30:cjc024_4882"
    INDEX 01 01:00:68
  TRACK 47 AUDIO
    TITLE "0:"
    INDEX 01 01:03:33
  TRACK 48 AUDIO
    TITLE "31:cjc024_4883"
    INDEX 01 01:03:63
  TRACK 49 AUDIO
    TITLE "0:"
    INDEX 01 01:06:30
  TRACK 50 AUDIO
    TITLE "28:cjc024_4884"
    INDEX 01 01:07:33
  TRACK 51 AUDIO
    TITLE "0:"
    INDEX 01 01:08:46
  TRACK 52 AUDIO
    TITLE "29:cjc024_4885"
    INDEX 01 01:09:10
  TRACK 53 AUDIO
    TITLE "0:"
    INDEX 01 01:12:46
  TRACK 54 AUDIO
    TITLE "30:cjc024_4886"
    INDEX 01 01:13:06
  TRACK 55 AUDIO
    TITLE "0:"
    INDEX 01 01:15:29
  TRACK 56 AUDIO
    TITLE "31:cjc024_4887"
    INDEX 01 01:15:52
  TRACK 57 AUDIO
    TITLE "0:"
    INDEX 01 01:17:73
  TRACK 58 AUDIO
    TITLE "28:cjc024_4888"
    INDEX 01 01:18:72
  TRACK 59 AUDIO
    TITLE "0:"
    INDEX 01 01:20:02
  TRACK 60 AUDIO
    TITLE "29:cjc024_4889"
    INDEX 01 01:20:49
  TRACK 61 AUDIO
    TITLE "0:"
    INDEX 01 01:24:16
  TRACK 62 AUDIO
    TITLE "30:cjc024_4890"
    INDEX 01 01:24:53
  TRACK 63 AUDIO
    TITLE "0:"
    INDEX 01 01:28:39
  TRACK 64 AUDIO
    TITLE "31:cjc024_4891"
    INDEX 01 01:28:65
  TRACK 65 AUDIO
    TITLE "0:"
    INDEX 01 01:32:51
  TRACK 66 AUDIO
    TITLE "28:cjc024_4892"
    INDEX 01 01:33:52
  TRACK 67 AUDIO
    TITLE "0:"
    INDEX 01 01:34:65
  TRACK 68 AUDIO
    TITLE "29:cjc024_4893"
    INDEX 01 01:35:27
  TRACK 69 AUDIO
    TITLE "0:"
    INDEX 01 01:38:30
  TRACK 70 AUDIO
    TITLE "30:cjc024_4894"
    INDEX 01 01:38:67
  TRACK 71 AUDIO
    TITLE "0:"
    INDEX 01 01:40:72
  TRACK 72 AUDIO
    TITLE "31:cjc024_4895"
    INDEX 01 01:41:22
  TRACK 73 AUDIO
    TITLE "0:"
    INDEX 01 01:43:25
  TRACK 74 AUDIO
    TITLE "28:cjc024_4896"
    INDEX 01 01:44:28
  TRACK 75 AUDIO
    TITLE "0:"
    INDEX 01 01:45:53
  TRACK 76 AUDIO
    TITLE "29:cjc024_4897"
    INDEX 01 01:46:18
  TRACK 77 AUDIO
    TITLE "0:"
    INDEX 01 01:48:01
  TRACK 78 AUDIO
    TITLE "30:cjc024_4898"
    INDEX 01 01:48:38
  TRACK 79 AUDIO
    TITLE "0:"
    INDEX 01 01:50:43
  TRACK 80 AUDIO
    TITLE "31:cjc024_4899"
    INDEX 01 01:50:74
  TRACK 81 AUDIO
    TITLE "0:"
    INDEX 01 01:53:08
  TRACK 82 AUDIO
    TITLE "28:cjc024_4900"
    INDEX 01 01:54:07
  TRACK 83 AUDIO
    TITLE "0:"
    INDEX 01 01:55:28
  TRACK 84 AUDIO
    TITLE "29:cjc024_4901"
    INDEX 01 01:55:65
  TRACK 85 AUDIO
    TITLE "0:"
    INDEX 01 01:57:70
  TRACK 86 AUDIO
    TITLE "30:cjc024_4902"
    INDEX 01 01:58:30
  TRACK 87 AUDIO
    TITLE "0:"
    INDEX 01 02:00:08
  TRACK 88 AUDIO
    TITLE "31:cjc024_4903"
    INDEX 01 02:00:33
  TRACK 89 AUDIO
    TITLE "0:"
    INDEX 01 02:02:11
  TRACK 90 AUDIO
    TITLE "28:cjc024_4904"
    INDEX 01 02:03:10
  TRACK 91 AUDIO
    TITLE "0:"
    INDEX 01 02:04:12
  TRACK 92 AUDIO
    TITLE "29:cjc024_4905"
    INDEX 01 02:04:49
  TRACK 93 AUDIO
    TITLE "0:"
    INDEX 01 02:06:57
  TRACK 94 AUDIO
    TITLE "30:cjc024_4906"
    INDEX 01 02:07:26
  TRACK 95 AUDIO
    TITLE "0:"
    INDEX 01 02:08:64
  TRACK 96 AUDIO
    TITLE "31:cjc024_4907"
    INDEX 01 02:09:21
  TRACK 97 AUDIO
    TITLE "0:"
    INDEX 01 02:10:59
  TRACK 98 AUDIO
    TITLE "28:cjc024_4908"
    INDEX 01 02:11:63
  TRACK 99 AUDIO
    TITLE "0:"
    INDEX 01 02:13:24
  TRACK 100 AUDIO
    TITLE "29:cjc024_4909"
    INDEX 01 02:13:63
  TRACK 101 AUDIO
    TITLE "0:"
    INDEX 01 02:15:45
  TRACK 102 AUDIO
    TITLE "30:cjc024_4910"
    INDEX 01 02:16:07
  TRACK 103 AUDIO
    TITLE "0:"
    INDEX 01 02:18:06
  TRACK 104 AUDIO
    TITLE "31:cjc024_4911"
    INDEX 01 02:18:33
  TRACK 105 AUDIO
    TITLE "0:"
    INDEX 01 02:20:30
  TRACK 106 AUDIO
    TITLE "28:cjc024_4912"
    INDEX 01 02:21:33
  TRACK 107 AUDIO
    TITLE "0:"
    INDEX 01 02:22:41
  TRACK 108 AUDIO
    TITLE "29:cjc024_4913"
    INDEX 01 02:23:03
  TRACK 109 AUDIO
    TITLE "0:"
    INDEX 01 02:24:20
  TRACK 110 AUDIO
    TITLE "30:cjc024_4914"
    INDEX 01 02:24:57
  TRACK 111 AUDIO
    TITLE "0:"
    INDEX 01 02:26:31
  TRACK 112 AUDIO
    TITLE "31:cjc024_4915"
    INDEX 01 02:26:56
  TRACK 113 AUDIO
    TITLE "0:"
    INDEX 01 02:28:28
  TRACK 114 AUDIO
    TITLE "28:cjc024_4916"
    INDEX 01 02:29:29
  TRACK 115 AUDIO
    TITLE "0:"
    INDEX 01 02:30:48
  TRACK 116 AUDIO
    TITLE "29:cjc024_4917"
    INDEX 01 02:31:12
  TRACK 117 AUDIO
    TITLE "0:"
    INDEX 01 02:32:61
  TRACK 118 AUDIO
    TITLE "30:cjc024_4918"
    INDEX 01 02:33:23
  TRACK 119 AUDIO
    TITLE "0:"
    INDEX 01 02:35:04
  TRACK 120 AUDIO
    TITLE "31:cjc024_4919"
    INDEX 01 02:35:28
  TRACK 121 AUDIO
    TITLE "0:"
    INDEX 01 02:37:09
  TRACK 122 AUDIO
    TITLE "28:cjc024_4920"
    INDEX 01 02:38:08
  TRACK 123 AUDIO
    TITLE "0:"
    INDEX 01 02:39:31
  TRACK 124 AUDIO
    TITLE "29:cjc024_4921"
    INDEX 01 02:39:73
  TRACK 125 AUDIO
    TITLE "0:"
    INDEX 01 02:41:68
  TRACK 126 AUDIO
    TITLE "30:cjc024_4922"
    INDEX 01 02:42:32
  TRACK 127 AUDIO
    TITLE "0:"
    INDEX 01 02:44:29
  TRACK 128 AUDIO
    TITLE "31:cjc024_4923"
    INDEX 01 02:44:54
  TRACK 129 AUDIO
    TITLE "0:"
    INDEX 01 02:46:51
  TRACK 130 AUDIO
    TITLE "28:cjc024_4924"
    INDEX 01 02:47:51
  TRACK 131 AUDIO
    TITLE "0:"
    INDEX 01 02:48:70
  TRACK 132 AUDIO
    TITLE "29:cjc024_4925"
    INDEX 01 02:49:32
  TRACK 133 AUDIO
    TITLE "0:"
    INDEX 01 02:50:65
  TRACK 134 AUDIO
    TITLE "30:cjc024_4926"
    INDEX 01 02:51:29
  TRACK 135 AUDIO
    TITLE "0:"
    INDEX 01 02:53:20
  TRACK 136 AUDIO
    TITLE "31:cjc024_4927"
    INDEX 01 02:53:45
  TRACK 137 AUDIO
    TITLE "0:"
    INDEX 01 02:55:36
  TRACK 138 AUDIO
    TITLE "28:cjc024_4928"
    INDEX 01 02:56:38
  TRACK 139 AUDIO
    TITLE "0:"
    INDEX 01 02:57:49
  TRACK 140 AUDIO
    TITLE "29:cjc024_4929"
    INDEX 01 02:58:11
  TRACK 141 AUDIO
    TITLE "0:"
    INDEX 01 02:59:62
  TRACK 142 AUDIO
    TITLE "30:cjc024_4930"
    INDEX 01 03:00:22
  TRACK 143 AUDIO
    TITLE "0:"
    INDEX 01 03:01:64
  TRACK 144 AUDIO
    TITLE "31:cjc024_4931"
    INDEX 01 03:02:15
  TRACK 145 AUDIO
    TITLE "0:"
    INDEX 01 03:03:57
  TRACK 146 AUDIO
    TITLE "28:cjc024_4932"
    INDEX 01 03:04:57
  TRACK 147 AUDIO
    TITLE "0:"
    INDEX 01 03:06:05
  TRACK 148 AUDIO
    TITLE "29:cjc024_4933"
    INDEX 01 03:06:42
  TRACK 149 AUDIO
    TITLE "0:"
    INDEX 01 03:08:68
  TRACK 150 AUDIO
    TITLE "30:cjc024_4934"
    INDEX 01 03:09:33
  TRACK 151 AUDIO
    TITLE "0:"
    INDEX 01 03:11:29
  TRACK 152 AUDIO
    TITLE "31:cjc024_4935"
    INDEX 01 03:11:59
  TRACK 153 AUDIO
    TITLE "0:"
    INDEX 01 03:13:58
  TRACK 154 AUDIO
    TITLE "28:cjc024_4936"
    INDEX 01 03:14:61
  TRACK 155 AUDIO
    TITLE "0:"
    INDEX 01 03:15:70
  TRACK 156 AUDIO
    TITLE "29:cjc024_4937"
    INDEX 01 03:16:35
  TRACK 157 AUDIO
    TITLE "0:"
    INDEX 01 03:19:05
  TRACK 158 AUDIO
    TITLE "30:cjc024_4938"
    INDEX 01 03:19:49
  TRACK 159 AUDIO
    TITLE "0:"
    INDEX 01 03:21:53
  TRACK 160 AUDIO
    TITLE "31:cjc024_4939"
    INDEX 01 03:22:08
  TRACK 161 AUDIO
    TITLE "0:"
    INDEX 01 03:24:14
  TRACK 162 AUDIO
    TITLE "28:cjc024_4940"
    INDEX 01 03:25:18
  TRACK 163 AUDIO
    TITLE "0:"
    INDEX 01 03:26:33
  TRACK 164 AUDIO
    TITLE "29:cjc024_4941"
    INDEX 01 03:26:72
  TRACK 165 AUDIO
    TITLE "0:"
    INDEX 01 03:30:17
  TRACK 166 AUDIO
    TITLE "30:cjc024_4942"
    INDEX 01 03:30:56
  TRACK 167 AUDIO
    TITLE "0:"
    INDEX 01 03:33:17
  TRACK 168 AUDIO
    TITLE "31:cjc024_4943"
    INDEX 01 03:33:49
  TRACK 169 AUDIO
    TITLE "0:"
    INDEX 01 03:36:08
  TRACK 170 AUDIO
    TITLE "28:cjc024_4944"
    INDEX 01 03:37:11
  TRACK 171 AUDIO
    TITLE "0:"
    INDEX 01 03:38:17
  TRACK 172 AUDIO
    TITLE "29:cjc024_4945"
    INDEX 01 03:38:56
  TRACK 173 AUDIO
    TITLE "0:"
    INDEX 01 03:41:68
  TRACK 174 AUDIO
    TITLE "30:cjc024_4946"
    INDEX 01 03:42:36
  TRACK 175 AUDIO
    TITLE "0:"
    INDEX 01 03:44:66
  TRACK 176 AUDIO
    TITLE "31:cjc024_4947"
    INDEX 01 03:45:21
  TRACK 177 AUDIO
    TITLE "0:"
    INDEX 01 03:47:51
  TRACK 178 AUDIO
    TITLE "28:cjc024_4948"
    INDEX 01 03:48:50
  TRACK 179 AUDIO
    TITLE "0:"
    INDEX 01 03:49:52
  TRACK 180 AUDIO
    TITLE "29:cjc024_4949"
    INDEX 01 03:50:28
  TRACK 181 AUDIO
    TITLE "0:"
    INDEX 01 03:52:44
  TRACK 182 AUDIO
    TITLE "30:cjc024_4950"
    INDEX 01 03:53:06
  TRACK 183 AUDIO
    TITLE "0:"
    INDEX 01 03:55:21
  TRACK 184 AUDIO
    TITLE "31:cjc024_4951"
    INDEX 01 03:55:48
  TRACK 185 AUDIO
    TITLE "0:"
    INDEX 01 03:57:63
  TRACK 186 AUDIO
    TITLE "28:cjc024_4952"
    INDEX 01 03:58:64
  TRACK 187 AUDIO
    TITLE "0:"
    INDEX 01 04:00:04
  TRACK 188 AUDIO
    TITLE "29:cjc024_4953"
    INDEX 01 04:00:46
  TRACK 189 AUDIO
    TITLE "0:"
    INDEX 01 04:04:34
  TRACK 190 AUDIO
    TITLE "30:cjc024_4954"
    INDEX 01 04:04:71
  TRACK 191 AUDIO
    TITLE "0:"
    INDEX 01 04:08:45
  TRACK 192 AUDIO
    TITLE "31:cjc024_4955"
    INDEX 01 04:08:71
  TRACK 193 AUDIO
    TITLE "0:"
    INDEX 01 04:12:45
  TRACK 194 AUDIO
    TITLE "28:cjc024_4956"
    INDEX 01 04:13:46
  TRACK 195 AUDIO
    TITLE "0:"
    INDEX 01 04:14:54
  TRACK 196 AUDIO
    TITLE "29:cjc024_4957"
    INDEX 01 04:15:27
  TRACK 197 AUDIO
    TITLE "0:"
    INDEX 01 04:17:73
  TRACK 198 AUDIO
    TITLE "30:cjc024_4958"
    INDEX 01 04:18:38
  TRACK 199 AUDIO
    TITLE "0:"
    INDEX 01 04:20:54
  TRACK 200 AUDIO
    TITLE "31:cjc024_4959"
    INDEX 01 04:21:05
  TRACK 201 AUDIO
    TITLE "0:"
    INDEX 01 04:23:21
  TRACK 202 AUDIO
    TITLE "28:cjc024_4960"
    INDEX 01 04:24:30
  TRACK 203 AUDIO
    TITLE "0:"
    INDEX 01 04:25:47
  TRACK 204 AUDIO
    TITLE "29:cjc024_4961"
    INDEX 01 04:26:18
  TRACK 205 AUDIO
    TITLE "0:"
    INDEX 01 04:28:42
  TRACK 206 AUDIO
    TITLE "30:cjc024_4962"
    INDEX 01 04:29:04
  TRACK 207 AUDIO
    TITLE "0:"
    INDEX 01 04:31:30
  TRACK 208 AUDIO
    TITLE "31:cjc024_4963"
    INDEX 01 04:31:64
  TRACK 209 AUDIO
    TITLE "0:"
    INDEX 01 04:34:17
  TRACK 210 AUDIO
    TITLE "28:cjc024_4964"
    INDEX 01 04:35:40
  TRACK 211 AUDIO
    TITLE "0:"
    INDEX 01 04:36:59
  TRACK 212 AUDIO
    TITLE "29:cjc024_4965"
    INDEX 01 04:37:27
  TRACK 213 AUDIO
    TITLE "0:"
    INDEX 01 04:39:28
  TRACK 214 AUDIO
    TITLE "30:cjc024_4966"
    INDEX 01 04:39:65
  TRACK 215 AUDIO
    TITLE "0:"
    INDEX 01 04:41:72
  TRACK 216 AUDIO
    TITLE "31:cjc024_4967"
    INDEX 01 04:42:20
  TRACK 217 AUDIO
    TITLE "0:"
    INDEX 01 04:44:27
  TRACK 218 AUDIO
    TITLE "28:cjc024_4968"
    INDEX 01 04:45:29
  TRACK 219 AUDIO
    TITLE "0:"
    INDEX 01 04:46:32
  TRACK 220 AUDIO
    TITLE "29:cjc024_4969"
    INDEX 01 04:47:22
  TRACK 221 AUDIO
    TITLE "0:"
    INDEX 01 04:49:22
  TRACK 222 AUDIO
    TITLE "30:cjc024_4970"
    INDEX 01 04:49:62
  TRACK 223 AUDIO
    TITLE "0:"
    INDEX 01 04:52:01
  TRACK 224 AUDIO
    TITLE "31:cjc024_4971"
    INDEX 01 04:52:33
  TRACK 225 AUDIO
    TITLE "0:"
    INDEX 01 04:54:45
  TRACK 226 AUDIO
    TITLE "28:cjc024_4972"
    INDEX 01 04:55:51
  TRACK 227 AUDIO
    TITLE "0:"
    INDEX 01 04:56:60
  TRACK 228 AUDIO
    TITLE "29:cjc024_4973"
    INDEX 01 04:57:24
  TRACK 229 AUDIO
    TITLE "0:"
    INDEX 01 04:59:39
  TRACK 230 AUDIO
    TITLE "30:cjc024_4974"
    INDEX 01 04:59:74
  TRACK 231 AUDIO
    TITLE "0:"
    INDEX 01 05:02:33
  TRACK 232 AUDIO
    TITLE "31:cjc024_4975"
    INDEX 01 05:02:58
  TRACK 233 AUDIO
    TITLE "0:"
    INDEX 01 05:05:20
  TRACK 234 AUDIO
    TITLE "28:cjc024_4976"
    INDEX 01 05:06:17
  TRACK 235 AUDIO
    TITLE "0:"
    INDEX 01 05:07:26
  TRACK 236 AUDIO
    TITLE "29:cjc024_4977"
    INDEX 01 05:07:63
  TRACK 237 AUDIO
    TITLE "0:"
    INDEX 01 05:10:07
  TRACK 238 AUDIO
    TITLE "30:cjc024_4978"
    INDEX 01 05:10:42
  TRACK 239 AUDIO
    TITLE "0:"
    INDEX 01 05:12:47
  TRACK 240 AUDIO
    TITLE "31:cjc024_4979"
    INDEX 01 05:12:72
  TRACK 241 AUDIO
    TITLE "0:"
    INDEX 01 05:15:00
  TRACK 242 AUDIO
    TITLE "28:cjc024_4980"
    INDEX 01 05:16:06
  TRACK 243 AUDIO
    TITLE "0:"
    INDEX 01 05:17:19
  TRACK 244 AUDIO
    TITLE "29:cjc024_4981"
    INDEX 01 05:17:60
  TRACK 245 AUDIO
    TITLE "0:"
    INDEX 01 05:20:41
  TRACK 246 AUDIO
    TITLE "30:cjc024_4982"
    INDEX 01 05:21:03
  TRACK 247 AUDIO
    TITLE "0:"
    INDEX 01 05:22:69
  TRACK 248 AUDIO
    TITLE "31:cjc024_4983"
    INDEX 01 05:23:19
  TRACK 249 AUDIO
    TITLE "0:"
    INDEX 01 05:25:12
  TRACK 250 AUDIO
    TITLE "28:cjc024_4984"
    INDEX 01 05:26:18
  TRACK 251 AUDIO
    TITLE "0:"
    INDEX 01 05:27:54
  TRACK 252 AUDIO
    TITLE "29:cjc024_4985"
    INDEX 01 05:28:21
  TRACK 253 AUDIO
    TITLE "0:"
    INDEX 01 05:30:65
  TRACK 254 AUDIO
    TITLE "30:cjc024_4986"
    INDEX 01 05:31:31
  TRACK 255 AUDIO
    TITLE "0:"
    INDEX 01 05:33:65
  TRACK 256 AUDIO
    TITLE "31:cjc024_4987"
    INDEX 01 05:34:15
  TRACK 257 AUDIO
    TITLE "0:"
    INDEX 01 05:36:51
  TRACK 258 AUDIO
    TITLE "28:cjc024_4988"
    INDEX 01 05:37:53
  TRACK 259 AUDIO
    TITLE "0:"
    INDEX 01 05:38:66
  TRACK 260 AUDIO
    TITLE "29:cjc024_4989"
    INDEX 01 05:39:30
  TRACK 261 AUDIO
    TITLE "0:"
    INDEX 01 05:41:11
  TRACK 262 AUDIO
    TITLE "30:cjc024_4990"
    INDEX 01 05:41:53
  TRACK 263 AUDIO
    TITLE "0:"
    INDEX 01 05:43:50
  TRACK 264 AUDIO
    TITLE "31:cjc024_4991"
    INDEX 01 05:44:00
  TRACK 265 AUDIO
    TITLE "0:"
    INDEX 01 05:45:74
  TRACK 266 AUDIO
    TITLE "28:cjc024_4992"
    INDEX 01 05:47:00
  TRACK 267 AUDIO
    TITLE "0:"
    INDEX 01 05:48:19
  TRACK 268 AUDIO
    TITLE "29:cjc024_4993"
    INDEX 01 05:48:59
  TRACK 269 AUDIO
    TITLE "0:"
    INDEX 01 05:51:14
  TRACK 270 AUDIO
    TITLE "30:cjc024_4994"
    INDEX 01 05:51:51
  TRACK 271 AUDIO
    TITLE "0:"
    INDEX 01 05:54:28
  TRACK 272 AUDIO
    TITLE "31:cjc024_4995"
    INDEX 01 05:54:53
  TRACK 273 AUDIO
    TITLE "0:"
    INDEX 01 05:57:30
  TRACK 274 AUDIO
    TITLE "28:cjc024_4996"
    INDEX 01 05:58:30
  TRACK 275 AUDIO
    TITLE "0:"
    INDEX 01 05:59:49
  TRACK 276 AUDIO
    TITLE "29:cjc024_4997"
    INDEX 01 06:00:11
  TRACK 277 AUDIO
    TITLE "0:"
    INDEX 01 06:02:39
  TRACK 278 AUDIO
    TITLE "30:cjc024_4998"
    INDEX 01 06:03:01
  TRACK 279 AUDIO
    TITLE "0:"
    INDEX 01 06:04:73
  TRACK 280 AUDIO
    TITLE "31:cjc024_4999"
    INDEX 01 06:05:26
  TRACK 281 AUDIO
    TITLE "0:"
    INDEX 01 06:07:23
  TRACK 282 AUDIO
    TITLE "28:cjc024_5000"
    INDEX 01 06:08:20
  TRACK 283 AUDIO
    TITLE "0:"
    INDEX 01 06:09:41
  TRACK 284 AUDIO
    TITLE "29:cjc024_5001"
    INDEX 01 06:10:09
  TRACK 285 AUDIO
    TITLE "0:"
    INDEX 01 06:11:50
  TRACK 286 AUDIO
    TITLE "30:cjc024_5002"
    INDEX 01 06:12:14
  TRACK 287 AUDIO
    TITLE "0:"
    INDEX 01 06:13:68
  TRACK 288 AUDIO
    TITLE "31:cjc024_5003"
    INDEX 01 06:14:21
  TRACK 289 AUDIO
    TITLE "0:"
    INDEX 01 06:15:71
  TRACK 290 AUDIO
    TITLE "28:cjc024_5004"
    INDEX 01 06:17:03
  TRACK 291 AUDIO
    TITLE "0:"
    INDEX 01 06:18:17
  TRACK 292 AUDIO
    TITLE "29:cjc024_5005"
    INDEX 01 06:18:58
  TRACK 293 AUDIO
    TITLE "0:"
    INDEX 01 06:21:52
  TRACK 294 AUDIO
    TITLE "30:cjc024_5006"
    INDEX 01 06:22:14
  TRACK 295 AUDIO
    TITLE "0:"
    INDEX 01 06:24:70
  TRACK 296 AUDIO
    TITLE "31:cjc024_5007"
    INDEX 01 06:25:21
  TRACK 297 AUDIO
    TITLE "0:"
    INDEX 01 06:28:03
  TRACK 298 AUDIO
    TITLE "28:cjc024_5008"
    INDEX 01 06:29:05
  TRACK 299 AUDIO
    TITLE "0:"
    INDEX 01 06:30:04
  TRACK 300 AUDIO
    TITLE "29:cjc024_5009"
    INDEX 01 06:30:41
  TRACK 301 AUDIO
    TITLE "0:"
    INDEX 01 06:32:23
  TRACK 302 AUDIO
    TITLE "30:cjc024_5010"
    INDEX 01 06:32:64
  TRACK 303 AUDIO
    TITLE "0:"
    INDEX 01 06:34:29
  TRACK 304 AUDIO
    TITLE "31:cjc024_5011"
    INDEX 01 06:34:59
  TRACK 305 AUDIO
    TITLE "0:"
    INDEX 01 06:36:24
  TRACK 306 AUDIO
    TITLE "28:cjc024_5012"
    INDEX 01 06:37:28
  TRACK 307 AUDIO
    TITLE "0:"
    INDEX 01 06:38:29
  TRACK 308 AUDIO
    TITLE "29:cjc024_5013"
    INDEX 01 06:38:68
  TRACK 309 AUDIO
    TITLE "0:"
    INDEX 01 06:42:21
  TRACK 310 AUDIO
    TITLE "30:cjc024_5014"
    INDEX 01 06:42:58
  TRACK 311 AUDIO
    TITLE "0:"
    INDEX 01 06:45:55
  TRACK 312 AUDIO
    TITLE "31:cjc024_5015"
    INDEX 01 06:46:05
  TRACK 313 AUDIO
    TITLE "0:"
    INDEX 01 06:49:01
  TRACK 314 AUDIO
    TITLE "28:cjc024_5016"
    INDEX 01 06:50:03
  TRACK 315 AUDIO
    TITLE "0:"
    INDEX 01 06:50:73
  TRACK 316 AUDIO
    TITLE "29:cjc024_5017"
    INDEX 01 06:51:38
  TRACK 317 AUDIO
    TITLE "0:"
    INDEX 01 06:52:64
  TRACK 318 AUDIO
    TITLE "30:cjc024_5018"
    INDEX 01 06:53:31
  TRACK 319 AUDIO
    TITLE "0:"
    INDEX 01 06:55:06
  TRACK 320 AUDIO
    TITLE "31:cjc024_5019"
    INDEX 01 06:55:31
  TRACK 321 AUDIO
    TITLE "0:"
    INDEX 01 06:57:11
  TRACK 322 AUDIO
    TITLE "28:cjc024_5020"
    INDEX 01 06:58:04
  TRACK 323 AUDIO
    TITLE "0:"
    INDEX 01 06:59:12
  TRACK 324 AUDIO
    TITLE "29:cjc024_5021"
    INDEX 01 06:59:49
  TRACK 325 AUDIO
    TITLE "0:"
    INDEX 01 07:03:23
  TRACK 326 AUDIO
    TITLE "30:cjc024_5022"
    INDEX 01 07:03:60
  TRACK 327 AUDIO
    TITLE "0:"
    INDEX 01 07:07:11
  TRACK 328 AUDIO
    TITLE "31:cjc024_5023"
    INDEX 01 07:07:37
  TRACK 329 AUDIO
    TITLE "0:"
    INDEX 01 07:10:60
  TRACK 330 AUDIO
    TITLE "28:cjc024_5024"
    INDEX 01 07:11:60
  TRACK 331 AUDIO
    TITLE "0:"
    INDEX 01 07:12:65
  TRACK 332 AUDIO
    TITLE "29:cjc024_5025"
    INDEX 01 07:13:35
  TRACK 333 AUDIO
    TITLE "0:"
    INDEX 01 07:15:16
  TRACK 334 AUDIO
    TITLE "30:cjc024_5026"
    INDEX 01 07:15:58
  TRACK 335 AUDIO
    TITLE "0:"
    INDEX 01 07:17:21
  TRACK 336 AUDIO
    TITLE "31:cjc024_5027"
    INDEX 01 07:17:47
  TRACK 337 AUDIO
    TITLE "0:"
    INDEX 01 07:19:10
  TRACK 338 AUDIO
    TITLE "28:cjc024_5028"
    INDEX 01 07:20:18
  TRACK 339 AUDIO
    TITLE "0:"
    INDEX 01 07:21:15
  TRACK 340 AUDIO
    TITLE "29:cjc024_5029"
    INDEX 01 07:21:58
  TRACK 341 AUDIO
    TITLE "0:"
    INDEX 01 07:24:15
  TRACK 342 AUDIO
    TITLE "30:cjc024_5030"
    INDEX 01 07:24:59
  TRACK 343 AUDIO
    TITLE "0:"
    INDEX 01 07:26:32
  TRACK 344 AUDIO
    TITLE "31:cjc024_5031"
    INDEX 01 07:27:02
  TRACK 345 AUDIO
    TITLE "0:"
    INDEX 01 07:28:50
  TRACK 346 AUDIO
    TITLE "28:cjc024_5032"
    INDEX 01 07:29:73
  TRACK 347 AUDIO
    TITLE "0:"
    INDEX 01 07:31:08
  TRACK 348 AUDIO
    TITLE "29:cjc024_5033"
    INDEX 01 07:31:55
  TRACK 349 AUDIO
    TITLE "0:"
    INDEX 01 07:34:45
  TRACK 350 AUDIO
    TITLE "30:cjc024_5034"
    INDEX 01 07:35:07
  TRACK 351 AUDIO
    TITLE "0:"
    INDEX 01 07:37:40
  TRACK 352 AUDIO
    TITLE "31:cjc024_5035"
    INDEX 01 07:37:65
  TRACK 353 AUDIO
    TITLE "0:"
    INDEX 01 07:40:20
  TRACK 354 AUDIO
    TITLE "28:cjc024_5036"
    INDEX 01 07:41:26
  TRACK 355 AUDIO
    TITLE "0:"
    INDEX 01 07:42:27
  TRACK 356 AUDIO
    TITLE "29:cjc024_5037"
    INDEX 01 07:42:66
  TRACK 357 AUDIO
    TITLE "0:"
    INDEX 01 07:44:08
  TRACK 358 AUDIO
    TITLE "30:cjc024_5038"
    INDEX 01 07:44:46
  TRACK 359 AUDIO
    TITLE "0:"
    INDEX 01 07:46:39
  TRACK 360 AUDIO
    TITLE "31:cjc024_5039"
    INDEX 01 07:46:58
  TRACK 361 AUDIO
    TITLE "0:"
    INDEX 01 07:48:51
  TRACK 362 AUDIO
    TITLE "28:cjc024_5040"
    INDEX 01 07:49:53
  TRACK 363 AUDIO
    TITLE "0:"
    INDEX 01 07:50:74
  TRACK 364 AUDIO
    TITLE "29:cjc024_5041"
    INDEX 01 07:51:36
  TRACK 365 AUDIO
    TITLE "0:"
    INDEX 01 07:53:09
  TRACK 366 AUDIO
    TITLE "30:cjc024_5042"
    INDEX 01 07:53:48
  TRACK 367 AUDIO
    TITLE "0:"
    INDEX 01 07:55:43
  TRACK 368 AUDIO
    TITLE "31:cjc024_5043"
    INDEX 01 07:56:00
  TRACK 369 AUDIO
    TITLE "0:"
    INDEX 01 07:57:72
  TRACK 370 AUDIO
    TITLE "28:cjc024_5044"
    INDEX 01 07:58:73
  TRACK 371 AUDIO
    TITLE "0:"
    INDEX 01 08:00:15
  TRACK 372 AUDIO
    TITLE "29:cjc024_5045"
    INDEX 01 08:00:60
  TRACK 373 AUDIO
    TITLE "0:"
    INDEX 01 08:02:55
  TRACK 374 AUDIO
    TITLE "30:cjc024_5046"
    INDEX 01 08:03:17
  TRACK 375 AUDIO
    TITLE "0:"
    INDEX 01 08:05:07
  TRACK 376 AUDIO
    TITLE "31:cjc024_5047"
    INDEX 01 08:05:36
  TRACK 377 AUDIO
    TITLE "0:"
    INDEX 01 08:07:23
  TRACK 378 AUDIO
    TITLE "28:cjc024_5048"
    INDEX 01 08:08:28
  TRACK 379 AUDIO
    TITLE "0:"
    INDEX 01 08:09:40
  TRACK 380 AUDIO
    TITLE "29:cjc024_5049"
    INDEX 01 08:10:00
  TRACK 381 AUDIO
    TITLE "0:"
    INDEX 01 08:12:18
  TRACK 382 AUDIO
    TITLE "30:cjc024_5050"
    INDEX 01 08:12:58
  TRACK 383 AUDIO
    TITLE "0:"
    INDEX 01 08:14:60
  TRACK 384 AUDIO
    TITLE "31:cjc024_5051"
    INDEX 01 08:15:07
  TRACK 385 AUDIO
    TITLE "0:"
    INDEX 01 08:17:14
  TRACK 386 AUDIO
    TITLE "28:cjc024_5052"
    INDEX 01 08:18:11
  TRACK 387 AUDIO
    TITLE "0:"
    INDEX 01 08:19:22
  TRACK 388 AUDIO
    TITLE "29:cjc024_5053"
    INDEX 01 08:19:62
  TRACK 389 AUDIO
    TITLE "0:"
    INDEX 01 08:21:09
  TRACK 390 AUDIO
    TITLE "30:cjc024_5054"
    INDEX 01 08:21:47
  TRACK 391 AUDIO
    TITLE "0:"
    INDEX 01 08:23:42
  TRACK 392 AUDIO
    TITLE "31:cjc024_5055"
    INDEX 01 08:23:69
  TRACK 393 AUDIO
    TITLE "0:"
    INDEX 01 08:25:64
  TRACK 394 AUDIO
    TITLE "28:cjc024_5056"
    INDEX 01 08:27:02
  TRACK 395 AUDIO
    TITLE "0:"
    INDEX 01 08:28:15
  TRACK 396 AUDIO
    TITLE "29:cjc024_5057"
    INDEX 01 08:28:55
  TRACK 397 AUDIO
    TITLE "0:"
    INDEX 01 08:30:44
  TRACK 398 AUDIO
    TITLE "30:cjc024_5058"
    INDEX 01 08:31:02
  TRACK 399 AUDIO
    TITLE "0:"
    INDEX 01 08:32:48
  TRACK 400 AUDIO
    TITLE "31:cjc024_5059"
    INDEX 01 08:32:72
  TRACK 401 AUDIO
    TITLE "0:"
    INDEX 01 08:34:43
  TRACK 402 AUDIO
    TITLE "28:cjc024_5060"
    INDEX 01 08:35:43
  TRACK 403 AUDIO
    TITLE "0:"
    INDEX 01 08:36:52
  TRACK 404 AUDIO
    TITLE "29:cjc024_5061"
    INDEX 01 08:37:14
  TRACK 405 AUDIO
    TITLE "0:"
    INDEX 01 08:38:47
  TRACK 406 AUDIO
    TITLE "30:cjc024_5062"
    INDEX 01 08:39:09
  TRACK 407 AUDIO
    TITLE "0:"
    INDEX 01 08:40:72
  TRACK 408 AUDIO
    TITLE "31:cjc024_5063"
    INDEX 01 08:41:20
  TRACK 409 AUDIO
    TITLE "0:"
    INDEX 01 08:43:05
  TRACK 410 AUDIO
    TITLE "28:cjc024_5064"
    INDEX 01 08:44:07
  TRACK 411 AUDIO
    TITLE "0:"
    INDEX 01 08:45:22
  TRACK 412 AUDIO
    TITLE "29:cjc024_5065"
    INDEX 01 08:45:57
  TRACK 413 AUDIO
    TITLE "0:"
    INDEX 01 08:49:72
  TRACK 414 AUDIO
    TITLE "30:cjc024_5066"
    INDEX 01 08:50:42
  TRACK 415 AUDIO
    TITLE "0:"
    INDEX 01 08:53:35
  TRACK 416 AUDIO
    TITLE "31:cjc024_5067"
    INDEX 01 08:53:66
  TRACK 417 AUDIO
    TITLE "0:"
    INDEX 01 08:56:63
  TRACK 418 AUDIO
    TITLE "28:cjc024_5068"
    INDEX 01 08:57:60
  TRACK 419 AUDIO
    TITLE "0:"
    INDEX 01 08:58:66
  TRACK 420 AUDIO
    TITLE "29:cjc024_5069"
    INDEX 01 08:59:28
  TRACK 421 AUDIO
    TITLE "0:"
    INDEX 01 09:01:21
  TRACK 422 AUDIO
    TITLE "30:cjc024_5070"
    INDEX 01 09:01:52
  TRACK 423 AUDIO
    TITLE "0:"
    INDEX 01 09:03:55
  TRACK 424 AUDIO
    TITLE "31:cjc024_5071"
    INDEX 01 09:04:00
  TRACK 425 AUDIO
    TITLE "0:"
    INDEX 01 09:06:02
  TRACK 426 AUDIO
    TITLE "28:cjc024_5072"
    INDEX 01 09:07:02
  TRACK 427 AUDIO
    TITLE "0:"
    INDEX 01 09:08:07
  TRACK 428 AUDIO
    TITLE "29:cjc024_5073"
    INDEX 01 09:08:44
  TRACK 429 AUDIO
    TITLE "0:"
    INDEX 01 09:10:53
  TRACK 430 AUDIO
    TITLE "30:cjc024_5074"
    INDEX 01 09:11:15
  TRACK 431 AUDIO
    TITLE "0:"
    INDEX 01 09:12:68
  TRACK 432 AUDIO
    TITLE "31:cjc024_5075"
    INDEX 01 09:13:14
  TRACK 433 AUDIO
    TITLE "0:"
    INDEX 01 09:14:65
  TRACK 434 AUDIO
    TITLE "28:cjc024_5076"
    INDEX 01 09:15:66
  TRACK 435 AUDIO
    TITLE "0:"
    INDEX 01 09:16:71
  TRACK 436 AUDIO
    TITLE "29:cjc024_5077"
    INDEX 01 09:17:33
  TRACK 437 AUDIO
    TITLE "0:"
    INDEX 01 09:19:30
  TRACK 438 AUDIO
    TITLE "30:cjc024_5078"
    INDEX 01 09:19:70
  TRACK 439 AUDIO
    TITLE "0:"
    INDEX 01 09:21:57
  TRACK 440 AUDIO
    TITLE "31:cjc024_5079"
    INDEX 01 09:22:05
  TRACK 441 AUDIO
    TITLE "0:"
    INDEX 01 09:23:67
  TRACK 442 AUDIO
    TITLE "28:cjc024_5080"
    INDEX 01 09:24:71
  TRACK 443 AUDIO
    TITLE "0:"
    INDEX 01 09:26:09
  TRACK 444 AUDIO
    TITLE "29:cjc024_5081"
    INDEX 01 09:26:48
  TRACK 445 AUDIO
    TITLE "0:"
    INDEX 01 09:28:35
  TRACK 446 AUDIO
    TITLE "30:cjc024_5082"
    INDEX 01 09:29:01
  TRACK 447 AUDIO
    TITLE "0:"
    INDEX 01 09:30:62
  TRACK 448 AUDIO
    TITLE "31:cjc024_5083"
    INDEX 01 09:31:10
  TRACK 449 AUDIO
    TITLE "0:"
    INDEX 01 09:32:70
  TRACK 450 AUDIO
    TITLE "28:cjc024_5084"
    INDEX 01 09:33:72
  TRACK 451 AUDIO
    TITLE "0:"
    INDEX 01 09:35:06
  TRACK 452 AUDIO
    TITLE "29:cjc024_5085"
    INDEX 01 09:35:43
  TRACK 453 AUDIO
    TITLE "0:"
    INDEX 01 09:37:15
  TRACK 454 AUDIO
    TITLE "30:cjc024_5086"
    INDEX 01 09:37:50
  TRACK 455 AUDIO
    TITLE "0:"
    INDEX 01 09:39:15
  TRACK 456 AUDIO
    TITLE "31:cjc024_5087"
    INDEX 01 09:39:41
  TRACK 457 AUDIO
    TITLE "0:"
    INDEX 01 09:41:07
  TRACK 458 AUDIO
    TITLE "28:cjc024_5088"
    INDEX 01 09:42:06
  TRACK 459 AUDIO
    TITLE "0:"
    INDEX 01 09:43:15
  TRACK 460 AUDIO
    TITLE "29:cjc024_5089"
    INDEX 01 09:43:52
  TRACK 461 AUDIO
    TITLE "0:"
    INDEX 01 09:46:29
  TRACK 462 AUDIO
    TITLE "30:cjc024_5090"
    INDEX 01 09:46:68
  TRACK 463 AUDIO
    TITLE "0:"
    INDEX 01 09:49:14
  TRACK 464 AUDIO
    TITLE "31:cjc024_5091"
    INDEX 01 09:49:41
  TRACK 465 AUDIO
    TITLE "0:"
    INDEX 01 09:51:64
  TRACK 466 AUDIO
    TITLE "28:cjc024_5092"
    INDEX 01 09:52:63
  TRACK 467 AUDIO
    TITLE "0:"
    INDEX 01 09:53:74
  TRACK 468 AUDIO
    TITLE "29:cjc024_5093"
    INDEX 01 09:54:41
  TRACK 469 AUDIO
    TITLE "0:"
    INDEX 01 09:56:16
  TRACK 470 AUDIO
    TITLE "30:cjc024_5094"
    INDEX 01 09:56:53
  TRACK 471 AUDIO
    TITLE "0:"
    INDEX 01 09:58:34
  TRACK 472 AUDIO
    TITLE "31:cjc024_5095"
    INDEX 01 09:58:62
  TRACK 473 AUDIO
    TITLE "0:"
    INDEX 01 10:00:43
  TRACK 474 AUDIO
    TITLE "28:cjc024_5096"
    INDEX 01 10:01:45
  TRACK 475 AUDIO
    TITLE "0:"
    INDEX 01 10:02:56
  TRACK 476 AUDIO
    TITLE "29:cjc024_5097"
    INDEX 01 10:03:18
  TRACK 477 AUDIO
    TITLE "0:"
    INDEX 01 10:05:11
  TRACK 478 AUDIO
    TITLE "30:cjc024_5098"
    INDEX 01 10:05:50
  TRACK 479 AUDIO
    TITLE "0:"
    INDEX 01 10:07:24
  TRACK 480 AUDIO
    TITLE "31:cjc024_5099"
    INDEX 01 10:07:47
  TRACK 481 AUDIO
    TITLE "0:"
    INDEX 01 10:09:21
  TRACK 482 AUDIO
    TITLE "28:cjc024_5100"
    INDEX 01 10:10:20
  TRACK 483 AUDIO
    TITLE "0:"
    INDEX 01 10:11:35
  TRACK 484 AUDIO
    TITLE "29:cjc024_5101"
    INDEX 01 10:11:70
  TRACK 485 AUDIO
    TITLE "0:"
    INDEX 01 10:16:46
  TRACK 486 AUDIO
    TITLE "30:cjc024_5102"
    INDEX 01 10:17:08
  TRACK 487 AUDIO
    TITLE "0:"
    INDEX 01 10:20:28
  TRACK 488 AUDIO
    TITLE "31:cjc024_5103"
    INDEX 01 10:20:50
  TRACK 489 AUDIO
    TITLE "0:"
    INDEX 01 10:23:70
  TRACK 490 AUDIO
    TITLE "28:cjc024_5104"
    INDEX 01 10:24:67
  TRACK 491 AUDIO
    TITLE "0:"
    INDEX 01 10:25:70
  TRACK 492 AUDIO
    TITLE "29:cjc024_5105"
    INDEX 01 10:26:35
  TRACK 493 AUDIO
    TITLE "0:"
    INDEX 01 10:28:73
  TRACK 494 AUDIO
    TITLE "30:cjc024_5106"
    INDEX 01 10:29:37
  TRACK 495 AUDIO
    TITLE "0:"
    INDEX 01 10:31:40
  TRACK 496 AUDIO
    TITLE "31:cjc024_5107"
    INDEX 01 10:31:59
  TRACK 497 AUDIO
    TITLE "0:"
    INDEX 01 10:33:60
  TRACK 498 AUDIO
    TITLE "28:cjc024_5108"
    INDEX 01 10:34:58
  TRACK 499 AUDIO
    TITLE "0:"
    INDEX 01 10:36:12
  TRACK 500 AUDIO
    TITLE "29:cjc024_5109"
    INDEX 01 10:36:51
  TRACK 501 AUDIO
    TITLE "0:"
    INDEX 01 10:39:04
  TRACK 502 AUDIO
    TITLE "30:cjc024_5110"
    INDEX 01 10:39:43
  TRACK 503 AUDIO
    TITLE "0:"
    INDEX 01 10:41:68
  TRACK 504 AUDIO
    TITLE "31:cjc024_5111"
    INDEX 01 10:42:32
  TRACK 505 AUDIO
    TITLE "0:"
    INDEX 01 10:44:54
  TRACK 506 AUDIO
    TITLE "28:cjc024_5112"
    INDEX 01 10:45:67
  TRACK 507 AUDIO
    TITLE "0:"
    INDEX 01 10:47:13
  TRACK 508 AUDIO
    TITLE "29:cjc024_5113"
    INDEX 01 10:47:52
  TRACK 509 AUDIO
    TITLE "0:"
    INDEX 01 10:49:71
  TRACK 510 AUDIO
    TITLE "30:cjc024_5114"
    INDEX 01 10:50:33
  TRACK 511 AUDIO
    TITLE "0:"
    INDEX 01 10:52:14
  TRACK 512 AUDIO
    TITLE "31:cjc024_5115"
    INDEX 01 10:52:44
  TRACK 513 AUDIO
    TITLE "0:"
    INDEX 01 10:54:25
  TRACK 514 AUDIO
    TITLE "28:cjc024_5116"
    INDEX 01 10:55:28
  TRACK 515 AUDIO
    TITLE "0:"
    INDEX 01 10:56:46
  TRACK 516 AUDIO
    TITLE "29:cjc024_5117"
    INDEX 01 10:57:16
  TRACK 517 AUDIO
    TITLE "0:"
    INDEX 01 11:00:36
  TRACK 518 AUDIO
    TITLE "30:cjc024_5118"
    INDEX 01 11:01:02
  TRACK 519 AUDIO
    TITLE "0:"
    INDEX 01 11:04:24
  TRACK 520 AUDIO
    TITLE "31:cjc024_5119"
    INDEX 01 11:04:57
  TRACK 521 AUDIO
    TITLE "0:"
    INDEX 01 11:08:06
  TRACK 522 AUDIO
    TITLE "28:cjc024_5120"
    INDEX 01 11:09:05
  TRACK 523 AUDIO
    TITLE "0:"
    INDEX 01 11:10:32
  TRACK 524 AUDIO
    TITLE "29:cjc024_5121"
    INDEX 01 11:11:04
  TRACK 525 AUDIO
    TITLE "0:"
    INDEX 01 11:14:26
  TRACK 526 AUDIO
    TITLE "30:cjc024_5122"
    INDEX 01 11:14:63
  TRACK 527 AUDIO
    TITLE "0:"
    INDEX 01 11:17:71
  TRACK 528 AUDIO
    TITLE "31:cjc024_5123"
    INDEX 01 11:18:22
  TRACK 529 AUDIO
    TITLE "0:"
    INDEX 01 11:21:30
  TRACK 530 AUDIO
    TITLE "28:cjc024_5124"
    INDEX 01 11:22:27
  TRACK 531 AUDIO
    TITLE "0:"
    INDEX 01 11:23:52
  TRACK 532 AUDIO
    TITLE "29:cjc024_5125"
    INDEX 01 11:24:14
  TRACK 533 AUDIO
    TITLE "0:"
    INDEX 01 11:26:43
  TRACK 534 AUDIO
    TITLE "30:cjc024_5126"
    INDEX 01 11:27:09
  TRACK 535 AUDIO
    TITLE "0:"
    INDEX 01 11:29:04
  TRACK 536 AUDIO
    TITLE "31:cjc024_5127"
    INDEX 01 11:29:27
  TRACK 537 AUDIO
    TITLE "0:"
    INDEX 01 11:31:22
  TRACK 538 AUDIO
    TITLE "28:cjc024_5128"
    INDEX 01 11:32:28
  TRACK 539 AUDIO
    TITLE "0:"
    INDEX 01 11:33:53
  TRACK 540 AUDIO
    TITLE "29:cjc024_5129"
    INDEX 01 11:34:15
  TRACK 541 AUDIO
    TITLE "0:"
    INDEX 01 11:35:50
  TRACK 542 AUDIO
    TITLE "30:cjc024_5130"
    INDEX 01 11:36:14
  TRACK 543 AUDIO
    TITLE "0:"
    INDEX 01 11:38:28
  TRACK 544 AUDIO
    TITLE "31:cjc024_5131"
    INDEX 01 11:38:54
  TRACK 545 AUDIO
    TITLE "0:"
    INDEX 01 11:40:68
  TRACK 546 AUDIO
    TITLE "28:cjc024_5132"
    INDEX 01 11:41:70
  TRACK 547 AUDIO
    TITLE "0:"
    INDEX 01 11:43:12
  TRACK 548 AUDIO
    TITLE "29:cjc024_5133"
    INDEX 01 11:43:57
  TRACK 549 AUDIO
    TITLE "0:"
    INDEX 01 11:45:56
  TRACK 550 AUDIO
    TITLE "30:cjc024_5134"
    INDEX 01 11:46:18
  TRACK 551 AUDIO
    TITLE "0:"
    INDEX 01 11:48:23
  TRACK 552 AUDIO
    TITLE "31:cjc024_5135"
    INDEX 01 11:48:48
  TRACK 553 AUDIO
    TITLE "0:"
    INDEX 01 11:50:51
  TRACK 554 AUDIO
    TITLE "28:cjc024_5136"
    INDEX 01 11:51:52
  TRACK 555 AUDIO
    TITLE "0:"
    INDEX 01 11:53:04
  TRACK 556 AUDIO
    TITLE "29:cjc024_5137"
    INDEX 01 11:53:44
  TRACK 557 AUDIO
    TITLE "0:"
    INDEX 01 11:55:62
  TRACK 558 AUDIO
    TITLE "30:cjc024_5138"
    INDEX 01 11:56:24
  TRACK 559 AUDIO
    TITLE "0:"
    INDEX 01 11:58:31
  TRACK 560 AUDIO
    TITLE "31:cjc024_5139"
    INDEX 01 11:58:54
  TRACK 561 AUDIO
    TITLE "0:"
    INDEX 01 12:00:61
  TRACK 562 AUDIO
    TITLE "28:cjc024_5140"
    INDEX 01 12:01:63
  TRACK 563 AUDIO
    TITLE "0:"
    INDEX 01 12:02:66
  TRACK 564 AUDIO
    TITLE "29:cjc024_5141"
    INDEX 01 12:03:34
  TRACK 565 AUDIO
    TITLE "0:"
    INDEX 01 12:06:40
  TRACK 566 AUDIO
    TITLE "30:cjc024_5142"
    INDEX 01 12:07:06
  TRACK 567 AUDIO
    TITLE "0:"
    INDEX 01 12:09:68
  TRACK 568 AUDIO
    TITLE "31:cjc024_5143"
    INDEX 01 12:10:18
  TRACK 569 AUDIO
    TITLE "0:"
    INDEX 01 12:13:05
  TRACK 570 AUDIO
    TITLE "28:cjc024_5144"
    INDEX 01 12:14:06
  TRACK 571 AUDIO
    TITLE "0:"
    INDEX 01 12:15:24
  TRACK 572 AUDIO
    TITLE "29:cjc024_5145"
    INDEX 01 12:15:63
  TRACK 573 AUDIO
    TITLE "0:"
    INDEX 01 12:17:54
  TRACK 574 AUDIO
    TITLE "30:cjc024_5146"
    INDEX 01 12:18:16
  TRACK 575 AUDIO
    TITLE "0:"
    INDEX 01 12:19:74
  TRACK 576 AUDIO
    TITLE "31:cjc024_5147"
    INDEX 01 12:20:27
  TRACK 577 AUDIO
    TITLE "0:"
    INDEX 01 12:22:06
  TRACK 578 AUDIO
    TITLE "28:cjc024_5148"
    INDEX 01 12:23:05
  TRACK 579 AUDIO
    TITLE "0:"
    INDEX 01 12:24:23
  TRACK 580 AUDIO
    TITLE "29:cjc024_5149"
    INDEX 01 12:24:60
  TRACK 581 AUDIO
    TITLE "0:"
    INDEX 01 12:27:58
  TRACK 582 AUDIO
    TITLE "30:cjc024_5150"
    INDEX 01 12:28:24
  TRACK 583 AUDIO
    TITLE "0:"
    INDEX 01 12:31:01
  TRACK 584 AUDIO
    TITLE "31:cjc024_5151"
    INDEX 01 12:31:27
  TRACK 585 AUDIO
    TITLE "0:"
    INDEX 01 12:34:03
  TRACK 586 AUDIO
    TITLE "28:cjc024_5152"
    INDEX 01 12:35:05
  TRACK 587 AUDIO
    TITLE "0:"
    INDEX 01 12:36:26
  TRACK 588 AUDIO
    TITLE "29:cjc024_5153"
    INDEX 01 12:36:65
  TRACK 589 AUDIO
    TITLE "0:"
    INDEX 01 12:39:14
  TRACK 590 AUDIO
    TITLE "30:cjc024_5154"
    INDEX 01 12:39:51
  TRACK 591 AUDIO
    TITLE "0:"
    INDEX 01 12:42:03
  TRACK 592 AUDIO
    TITLE "31:cjc024_5155"
    INDEX 01 12:42:26
  TRACK 593 AUDIO
    TITLE "0:"
    INDEX 01 12:44:53
  TRACK 594 AUDIO
    TITLE "28:cjc024_5156"
    INDEX 01 12:45:50
  TRACK 595 AUDIO
    TITLE "0:"
    INDEX 01 12:46:59
  TRACK 596 AUDIO
    TITLE "29:cjc024_5157"
    INDEX 01 12:47:24
  TRACK 597 AUDIO
    TITLE "0:"
    INDEX 01 12:49:15
  TRACK 598 AUDIO
    TITLE "30:cjc024_5158"
    INDEX 01 12:49:52
  TRACK 599 AUDIO
    TITLE "0:"
    INDEX 01 12:51:14
  TRACK 600 AUDIO
    TITLE "31:cjc024_5159"
    INDEX 01 12:51:39
  TRACK 601 AUDIO
    TITLE "0:"
    INDEX 01 12:53:05
  TRACK 602 AUDIO
    TITLE "28:cjc024_5160"
    INDEX 01 12:54:02
  TRACK 603 AUDIO
    TITLE "0:"
    INDEX 01 12:55:17
  TRACK 604 AUDIO
    TITLE "29:cjc024_5161"
    INDEX 01 12:55:56
  TRACK 605 AUDIO
    TITLE "0:"
    INDEX 01 12:57:30
  TRACK 606 AUDIO
    TITLE "30:cjc024_5162"
    INDEX 01 12:57:67
  TRACK 607 AUDIO
    TITLE "0:"
    INDEX 01 13:00:07
  TRACK 608 AUDIO
    TITLE "31:cjc024_5163"
    INDEX 01 13:00:30
  TRACK 609 AUDIO
    TITLE "0:"
    INDEX 01 13:02:45
  TRACK 610 AUDIO
    TITLE "28:cjc024_5164"
    INDEX 01 13:03:42
  TRACK 611 AUDIO
    TITLE "0:"
    INDEX 01 13:04:53
  TRACK 612 AUDIO
    TITLE "29:cjc024_5165"
    INDEX 01 13:05:18
  TRACK 613 AUDIO
    TITLE "0:"
    INDEX 01 13:07:50
  TRACK 614 AUDIO
    TITLE "30:cjc024_5166"
    INDEX 01 13:08:10
  TRACK 615 AUDIO
    TITLE "0:"
    INDEX 01 13:10:34
  TRACK 616 AUDIO
    TITLE "31:cjc024_5167"
    INDEX 01 13:10:62
  TRACK 617 AUDIO
    TITLE "0:"
    INDEX 01 13:13:09
  TRACK 618 AUDIO
    TITLE "28:cjc024_5168"
    INDEX 01 13:14:13
  TRACK 619 AUDIO
    TITLE "0:"
    INDEX 01 13:15:39
  TRACK 620 AUDIO
    TITLE "29:cjc024_5169"
    INDEX 01 13:16:08
  TRACK 621 AUDIO
    TITLE "0:"
    INDEX 01 13:19:67
  TRACK 622 AUDIO
    TITLE "30:cjc024_5170"
    INDEX 01 13:20:35
  TRACK 623 AUDIO
    TITLE "0:"
    INDEX 01 13:23:25
  TRACK 624 AUDIO
    TITLE "31:cjc024_5171"
    INDEX 01 13:23:55
  TRACK 625 AUDIO
    TITLE "0:"
    INDEX 01 13:26:45
  TRACK 626 AUDIO
    TITLE "28:cjc024_5172"
    INDEX 01 13:27:47
  TRACK 627 AUDIO
    TITLE "0:"
    INDEX 01 13:28:54
  TRACK 628 AUDIO
    TITLE "29:cjc024_5173"
    INDEX 01 13:29:18
  TRACK 629 AUDIO
    TITLE "0:"
    INDEX 01 13:30:70
  TRACK 630 AUDIO
    TITLE "30:cjc024_5174"
    INDEX 01 13:31:35
  TRACK 631 AUDIO
    TITLE "0:"
    INDEX 01 13:33:12
  TRACK 632 AUDIO
    TITLE "31:cjc024_5175"
    INDEX 01 13:33:35
  TRACK 633 AUDIO
    TITLE "0:"
    INDEX 01 13:35:13
  TRACK 634 AUDIO
    TITLE "28:cjc024_5176"
    INDEX 01 13:36:12
  TRACK 635 AUDIO
    TITLE "0:"
    INDEX 01 13:37:25
  TRACK 636 AUDIO
    TITLE "29:cjc024_5177"
    INDEX 01 13:37:65
  TRACK 637 AUDIO
    TITLE "0:"
    INDEX 01 13:39:44
  TRACK 638 AUDIO
    TITLE "30:cjc024_5178"
    INDEX 01 13:40:06
  TRACK 639 AUDIO
    TITLE "0:"
    INDEX 01 13:41:55
  TRACK 640 AUDIO
    TITLE "31:cjc024_5179"
    INDEX 01 13:42:05
  TRACK 641 AUDIO
    TITLE "0:"
    INDEX 01 13:43:53
  TRACK 642 AUDIO
    TITLE "28:cjc024_5180"
    INDEX 01 13:44:57
  TRACK 643 AUDIO
    TITLE "0:"
    INDEX 01 13:46:07
  TRACK 644 AUDIO
    TITLE "29:cjc024_5181"
    INDEX 01 13:46:46
  TRACK 645 AUDIO
    TITLE "0:"
    INDEX 01 13:48:47
  TRACK 646 AUDIO
    TITLE "30:cjc024_5182"
    INDEX 01 13:49:07
  TRACK 647 AUDIO
    TITLE "0:"
    INDEX 01 13:50:69
  TRACK 648 AUDIO
    TITLE "31:cjc024_5183"
    INDEX 01 13:51:26
  TRACK 649 AUDIO
    TITLE "0:"
    INDEX 01 13:53:11
  TRACK 650 AUDIO
    TITLE "28:cjc024_5184"
    INDEX 01 13:54:12
  TRACK 651 AUDIO
    TITLE "0:"
    INDEX 01 13:55:41
  TRACK 652 AUDIO
    TITLE "29:cjc024_5185"
    INDEX 01 13:56:03
  TRACK 653 AUDIO
    TITLE "0:"
    INDEX 01 13:57:73
  TRACK 654 AUDIO
    TITLE "30:cjc024_5186"
    INDEX 01 13:58:37
  TRACK 655 AUDIO
    TITLE "0:"
    INDEX 01 14:00:54
  TRACK 656 AUDIO
    TITLE "31:cjc024_5187"
    INDEX 01 14:01:00
  TRACK 657 AUDIO
    TITLE "0:"
    INDEX 01 14:03:13
  TRACK 658 AUDIO
    TITLE "28:cjc024_5188"
    INDEX 01 14:04:14
  TRACK 659 AUDIO
    TITLE "0:"
    INDEX 01 14:05:12
  TRACK 660 AUDIO
    TITLE "29:cjc024_5189"
    INDEX 01 14:05:47
  TRACK 661 AUDIO
    TITLE "0:"
    INDEX 01 14:07:09
  TRACK 662 AUDIO
    TITLE "30:cjc024_5190"
    INDEX 01 14:07:52
  TRACK 663 AUDIO
    TITLE "0:"
    INDEX 01 14:09:04
  TRACK 664 AUDIO
    TITLE "31:cjc024_5191"
    INDEX 01 14:09:27
  TRACK 665 AUDIO
    TITLE "0:"
    INDEX 01 14:10:54
  TRACK 666 AUDIO
    TITLE "28:cjc024_5192"
    INDEX 01 14:11:56
  TRACK 667 AUDIO
    TITLE "0:"
    INDEX 01 14:13:19
  TRACK 668 AUDIO
    TITLE "29:cjc024_5193"
    INDEX 01 14:13:58
  TRACK 669 AUDIO
    TITLE "0:"
    INDEX 01 14:16:41
  TRACK 670 AUDIO
    TITLE "30:cjc024_5194"
    INDEX 01 14:17:09
  TRACK 671 AUDIO
    TITLE "0:"
    INDEX 01 14:20:15
  TRACK 672 AUDIO
    TITLE "31:cjc024_5195"
    INDEX 01 14:20:57
  TRACK 673 AUDIO
    TITLE "0:"
    INDEX 01 14:23:63
  TRACK 674 AUDIO
    TITLE "28:cjc024_5196"
    INDEX 01 14:24:74
  TRACK 675 AUDIO
    TITLE "0:"
    INDEX 01 14:26:20
  TRACK 676 AUDIO
    TITLE "29:cjc024_5197"
    INDEX 01 14:26:55
  TRACK 677 AUDIO
    TITLE "0:"
    INDEX 01 14:28:50
  TRACK 678 AUDIO
    TITLE "30:cjc024_5198"
    INDEX 01 14:29:16
  TRACK 679 AUDIO
    TITLE "0:"
    INDEX 01 14:31:31
  TRACK 680 AUDIO
    TITLE "31:cjc024_5199"
    INDEX 01 14:31:58
  TRACK 681 AUDIO
    TITLE "0:"
    INDEX 01 14:34:00
  TRACK 682 AUDIO
    TITLE "28:cjc024_5200"
    INDEX 01 14:35:01
  TRACK 683 AUDIO
    TITLE "0:"
    INDEX 01 14:36:05
  TRACK 684 AUDIO
    TITLE "29:cjc024_5201"
    INDEX 01 14:36:40
  TRACK 685 AUDIO
    TITLE "0:"
    INDEX 01 14:38:56
  TRACK 686 AUDIO
    TITLE "30:cjc024_5202"
    INDEX 01 14:39:21
  TRACK 687 AUDIO
    TITLE "0:"
    INDEX 01 14:41:35
  TRACK 688 AUDIO
    TITLE "31:cjc024_5203"
    INDEX 01 14:41:63
  TRACK 689 AUDIO
    TITLE "0:"
    INDEX 01 14:44:02
  TRACK 690 AUDIO
    TITLE "28:cjc024_5204"
    INDEX 01 14:45:06
  TRACK 691 AUDIO
    TITLE "0:"
    INDEX 01 14:46:01
  TRACK 692 AUDIO
    TITLE "29:cjc024_5205"
    INDEX 01 14:46:38
  TRACK 693 AUDIO
    TITLE "0:"
    INDEX 01 14:48:39
  TRACK 694 AUDIO
    TITLE "30:cjc024_5206"
    INDEX 01 14:48:74
  TRACK 695 AUDIO
    TITLE "0:"
    INDEX 01 14:50:54
  TRACK 696 AUDIO
    TITLE "31:cjc024_5207"
    INDEX 01 14:51:02
  TRACK 697 AUDIO
    TITLE "0:"
    INDEX 01 14:52:57
  TRACK 698 AUDIO
    TITLE "28:cjc024_5208"
    INDEX 01 14:53:58
  TRACK 699 AUDIO
    TITLE "0:"
    INDEX 01 14:54:59
  TRACK 700 AUDIO
    TITLE "29:cjc024_5209"
    INDEX 01 14:55:27
  TRACK 701 AUDIO
    TITLE "0:"
    INDEX 01 14:57:71
  TRACK 702 AUDIO
    TITLE "30:cjc024_5210"
    INDEX 01 14:58:42
  TRACK 703 AUDIO
    TITLE "0:"
    INDEX 01 15:01:18
  TRACK 704 AUDIO
    TITLE "31:cjc024_5211"
    INDEX 01 15:01:48
  TRACK 705 AUDIO
    TITLE "0:"
    INDEX 01 15:04:24
  TRACK 706 AUDIO
    TITLE "28:cjc024_5212"
    INDEX 01 15:05:26
  TRACK 707 AUDIO
    TITLE "0:"
    INDEX 01 15:06:45
  TRACK 708 AUDIO
    TITLE "29:cjc024_5213"
    INDEX 01 15:07:05
  TRACK 709 AUDIO
    TITLE "0:"
    INDEX 01 15:09:32
  TRACK 710 AUDIO
    TITLE "30:cjc024_5214"
    INDEX 01 15:09:71
  TRACK 711 AUDIO
    TITLE "0:"
    INDEX 01 15:12:28
  TRACK 712 AUDIO
    TITLE "31:cjc024_5215"
    INDEX 01 15:12:51
  TRACK 713 AUDIO
    TITLE "0:"
    INDEX 01 15:15:09
  TRACK 714 AUDIO
    TITLE "28:cjc024_5216"
    INDEX 01 15:16:08
  TRACK 715 AUDIO
    TITLE "0:"
    INDEX 01 15:17:53
  TRACK 716 AUDIO
    TITLE "29:cjc024_5217"
    INDEX 01 15:18:13
  TRACK 717 AUDIO
    TITLE "0:"
    INDEX 01 15:22:71
  TRACK 718 AUDIO
    TITLE "30:cjc024_5218"
    INDEX 01 15:23:36
  TRACK 719 AUDIO
    TITLE "0:"
    INDEX 01 15:26:71
  TRACK 720 AUDIO
    TITLE "31:cjc024_5219"
    INDEX 01 15:27:22
  TRACK 721 AUDIO
    TITLE "0:"
    INDEX 01 15:30:59
  TRACK 722 AUDIO
    TITLE "28:cjc024_5220"
    INDEX 01 15:31:57
  TRACK 723 AUDIO
    TITLE "0:"
    INDEX 01 15:32:62
  TRACK 724 AUDIO
    TITLE "29:cjc024_5221"
    INDEX 01 15:33:22
  TRACK 725 AUDIO
    TITLE "0:"
    INDEX 01 15:35:09
  TRACK 726 AUDIO
    TITLE "30:cjc024_5222"
    INDEX 01 15:35:51
  TRACK 727 AUDIO
    TITLE "0:"
    INDEX 01 15:37:44
  TRACK 728 AUDIO
    TITLE "31:cjc024_5223"
    INDEX 01 15:37:71
  TRACK 729 AUDIO
    TITLE "0:"
    INDEX 01 15:39:64
  TRACK 730 AUDIO
    TITLE "28:cjc024_5224"
    INDEX 01 15:40:63
  TRACK 731 AUDIO
    TITLE "0:"
    INDEX 01 15:41:63
  TRACK 732 AUDIO
    TITLE "29:cjc024_5225"
    INDEX 01 15:42:29
  TRACK 733 AUDIO
    TITLE "0:"
    INDEX 01 15:46:25
  TRACK 734 AUDIO
    TITLE "30:cjc024_5226"
    INDEX 01 15:46:68
  TRACK 735 AUDIO
    TITLE "0:"
    INDEX 01 15:49:00
  TRACK 736 AUDIO
    TITLE "31:cjc024_5227"
    INDEX 01 15:49:23
  TRACK 737 AUDIO
    TITLE "0:"
    INDEX 01 15:51:32
  TRACK 738 AUDIO
    TITLE "28:cjc024_5228"
    INDEX 01 15:52:39
  TRACK 739 AUDIO
    TITLE "0:"
    INDEX 01 15:53:50
  TRACK 740 AUDIO
    TITLE "29:cjc024_5229"
    INDEX 01 15:54:17
  TRACK 741 AUDIO
    TITLE "0:"
    INDEX 01 15:56:27
  TRACK 742 AUDIO
    TITLE "30:cjc024_5230"
    INDEX 01 15:56:64
  TRACK 743 AUDIO
    TITLE "0:"
    INDEX 01 15:59:02
  TRACK 744 AUDIO
    TITLE "31:cjc024_5231"
    INDEX 01 15:59:26
  TRACK 745 AUDIO
    TITLE "0:"
    INDEX 01 16:01:34
  TRACK 746 AUDIO
    TITLE "28:cjc024_5232"
    INDEX 01 16:02:36
  TRACK 747 AUDIO
    TITLE "0:"
    INDEX 01 16:03:63
  TRACK 748 AUDIO
    TITLE "29:cjc024_5233"
    INDEX 01 16:04:25
  TRACK 749 AUDIO
    TITLE "0:"
    INDEX 01 16:07:17
  TRACK 750 AUDIO
    TITLE "30:cjc024_5234"
    INDEX 01 16:07:52
  TRACK 751 AUDIO
    TITLE "0:"
    INDEX 01 16:10:43
  TRACK 752 AUDIO
    TITLE "31:cjc024_5235"
    INDEX 01 16:10:65
  TRACK 753 AUDIO
    TITLE "0:"
    INDEX 01 16:13:55
  TRACK 754 AUDIO
    TITLE "28:cjc024_5236"
    INDEX 01 16:14:53
  TRACK 755 AUDIO
    TITLE "0:"
    INDEX 01 16:15:66
  TRACK 756 AUDIO
    TITLE "29:cjc024_5237"
    INDEX 01 16:16:30
  TRACK 757 AUDIO
    TITLE "0:"
    INDEX 01 16:18:41
  TRACK 758 AUDIO
    TITLE "30:cjc024_5238"
    INDEX 01 16:19:03
  TRACK 759 AUDIO
    TITLE "0:"
    INDEX 01 16:21:19
  TRACK 760 AUDIO
    TITLE "31:cjc024_5239"
    INDEX 01 16:21:47
  TRACK 761 AUDIO
    TITLE "0:"
    INDEX 01 16:23:65
  TRACK 762 AUDIO
    TITLE "28:cjc024_5240"
    INDEX 01 16:24:67
  TRACK 763 AUDIO
    TITLE "0:"
    INDEX 01 16:26:03
  TRACK 764 AUDIO
    TITLE "29:cjc024_5241"
    INDEX 01 16:26:40
  TRACK 765 AUDIO
    TITLE "0:"
    INDEX 01 16:28:15
  TRACK 766 AUDIO
    TITLE "30:cjc024_5242"
    INDEX 01 16:28:53
  TRACK 767 AUDIO
    TITLE "0:"
    INDEX 01 16:30:12
  TRACK 768 AUDIO
    TITLE "31:cjc024_5243"
    INDEX 01 16:30:40
  TRACK 769 AUDIO
    TITLE "0:"
    INDEX 01 16:32:00
  TRACK 770 AUDIO
    TITLE "28:cjc024_5244"
    INDEX 01 16:33:03
  TRACK 771 AUDIO
    TITLE "0:"
    INDEX 01 16:34:12
  TRACK 772 AUDIO
    TITLE "29:cjc024_5245"
    INDEX 01 16:34:49
  TRACK 773 AUDIO
    TITLE "0:"
    INDEX 01 16:36:33
  TRACK 774 AUDIO
    TITLE "30:cjc024_5246"
    INDEX 01 16:36:70
  TRACK 775 AUDIO
    TITLE "0:"
    INDEX 01 16:38:51
  TRACK 776 AUDIO
    TITLE "31:cjc024_5247"
    INDEX 01 16:39:02
  TRACK 777 AUDIO
    TITLE "0:"
    INDEX 01 16:40:58
  TRACK 778 AUDIO
    TITLE "28:cjc024_5248"
    INDEX 01 16:41:57
  TRACK 779 AUDIO
    TITLE "0:"
    INDEX 01 16:42:74
  TRACK 780 AUDIO
    TITLE "29:cjc024_5249"
    INDEX 01 16:43:39
  TRACK 781 AUDIO
    TITLE "0:"
    INDEX 01 16:45:16
  TRACK 782 AUDIO
    TITLE "30:cjc024_5250"
    INDEX 01 16:45:55
  TRACK 783 AUDIO
    TITLE "0:"
    INDEX 01 16:47:52
  TRACK 784 AUDIO
    TITLE "31:cjc024_5251"
    INDEX 01 16:48:04
  TRACK 785 AUDIO
    TITLE "0:"
    INDEX 01 16:50:03
  TRACK 786 AUDIO
    TITLE "28:cjc024_5252"
    INDEX 01 16:51:11
  TRACK 787 AUDIO
    TITLE "0:"
    INDEX 01 16:52:24
  TRACK 788 AUDIO
    TITLE "29:cjc024_5253"
    INDEX 01 16:52:67
  TRACK 789 AUDIO
    TITLE "0:"
    INDEX 01 16:54:40
  TRACK 790 AUDIO
    TITLE "30:cjc024_5254"
    INDEX 01 16:55:03
  TRACK 791 AUDIO
    TITLE "0:"
    INDEX 01 16:56:71
  TRACK 792 AUDIO
    TITLE "31:cjc024_5255"
    INDEX 01 16:57:25
  TRACK 793 AUDIO
    TITLE "0:"
    INDEX 01 16:59:18
  TRACK 794 AUDIO
    TITLE "28:cjc024_5256"
    INDEX 01 17:00:17
  TRACK 795 AUDIO
    TITLE "0:"
    INDEX 01 17:01:25
  TRACK 796 AUDIO
    TITLE "29:cjc024_5257"
    INDEX 01 17:01:64
  TRACK 797 AUDIO
    TITLE "0:"
    INDEX 01 17:03:33
  TRACK 798 AUDIO
    TITLE "30:cjc024_5258"
    INDEX 01 17:03:73
  TRACK 799 AUDIO
    TITLE "0:"
    INDEX 01 17:05:52
  TRACK 800 AUDIO
    TITLE "31:cjc024_5259"
    INDEX 01 17:06:00
  TRACK 801 AUDIO
    TITLE "0:"
    INDEX 01 17:07:57
